<svg width="80" height="80" viewBox="0 0 80 80" fill="none" xmlns="http://www.w3.org/2000/svg">
<path d="M45 13.75V59.5988C44.9999 60.4802 45.2329 61.3459 45.6752 62.1083C46.1175 62.8707 46.7535 63.5026 47.5187 63.94L53.75 67.5L59.9813 63.94C60.7465 63.5026 61.3825 62.8707 61.8248 62.1083C62.2671 61.3459 62.5001 60.4802 62.5 59.5988V13.75L53.75 18.75L45 13.75Z" fill="#FFBD4A"/>
<path d="M17.5 23.75V59.5988C17.4999 60.4802 17.7329 61.3459 18.1752 62.1083C18.6175 62.8707 19.2535 63.5026 20.0187 63.94L26.25 67.5L32.4813 63.94C33.2465 63.5026 33.8825 62.8707 34.3248 62.1083C34.7671 61.3459 35.0001 60.4802 35 59.5988V23.75L26.25 28.75L17.5 23.75Z" fill="#FFBD4A"/>
<path d="M53.75 20C53.4185 20 53.1005 19.8683 52.8661 19.6339C52.6317 19.3995 52.5 19.0815 52.5 18.75V11.25C52.5 10.9185 52.6317 10.6005 52.8661 10.3661C53.1005 10.1317 53.4185 10 53.75 10C54.0815 10 54.3995 10.1317 54.6339 10.3661C54.8683 10.6005 55 10.9185 55 11.25V18.75C55 19.0815 54.8683 19.3995 54.6339 19.6339C54.3995 19.8683 54.0815 20 53.75 20Z" fill="#363636"/>
<path d="M26.25 77.5C25.9185 77.5 25.6005 77.3683 25.3661 77.1339C25.1317 76.8995 25 76.5815 25 76.25V67.5C25 67.1685 25.1317 66.8505 25.3661 66.6161C25.6005 66.3817 25.9185 66.25 26.25 66.25C26.5815 66.25 26.8995 66.3817 27.1339 66.6161C27.3683 66.8505 27.5 67.1685 27.5 67.5V76.25C27.5 76.5815 27.3683 76.8995 27.1339 77.1339C26.8995 77.3683 26.5815 77.5 26.25 77.5Z" fill="#363636"/>
<path d="M53.75 77.5C53.4185 77.5 53.1005 77.3683 52.8661 77.1339C52.6317 76.8995 52.5 76.5815 52.5 76.25V67.5C52.5 67.1685 52.6317 66.8505 52.8661 66.6161C53.1005 66.3817 53.4185 66.25 53.75 66.25C54.0815 66.25 54.3995 66.3817 54.6339 66.6161C54.8683 66.8505 55 67.1685 55 67.5V76.25C55 76.5815 54.8683 76.8995 54.6339 77.1339C54.3995 77.3683 54.0815 77.5 53.75 77.5Z" fill="#363636"/>
<path d="M26.25 30C25.9185 30 25.6005 29.8683 25.3661 29.6339C25.1317 29.3995 25 29.0815 25 28.75V22.5C25 22.1685 25.1317 21.8505 25.3661 21.6161C25.6005 21.3817 25.9185 21.25 26.25 21.25C26.5815 21.25 26.8995 21.3817 27.1339 21.6161C27.3683 21.8505 27.5 22.1685 27.5 22.5V28.75C27.5 29.0815 27.3683 29.3995 27.1339 29.6339C26.8995 29.8683 26.5815 30 26.25 30Z" fill="#363636"/>
<path d="M53.75 68.75C53.4185 68.75 53.1005 68.6183 52.8661 68.3839C52.6317 68.1495 52.5 67.8315 52.5 67.5V20C52.5 19.6685 52.6317 19.3505 52.8661 19.1161C53.1005 18.8817 53.4185 18.75 53.75 18.75C54.0815 18.75 54.3995 18.8817 54.6339 19.1161C54.8683 19.3505 55 19.6685 55 20V67.5C55 67.8315 54.8683 68.1495 54.6339 68.3839C54.3995 68.6183 54.0815 68.75 53.75 68.75Z" fill="#363636"/>
<path d="M53.75 68.75C53.5308 68.7508 53.3153 68.6939 53.125 68.585L46.9 65.025C45.9441 64.4775 45.1495 63.6875 44.5964 62.7348C44.0434 61.7821 43.7514 60.7004 43.75 59.5988V7.5C43.75 7.16848 43.8817 6.85054 44.1161 6.61612C44.3505 6.3817 44.6685 6.25 45 6.25C45.3315 6.25 45.6495 6.3817 45.8839 6.61612C46.1183 6.85054 46.25 7.16848 46.25 7.5V59.5988C46.2522 60.2587 46.4281 60.9064 46.7598 61.4768C47.0915 62.0473 47.5675 62.5204 48.14 62.8488L53.75 66.06L59.36 62.855C59.9334 62.5262 60.41 62.052 60.7418 61.4804C61.0736 60.9087 61.2489 60.2597 61.25 59.5988V7.5C61.25 7.16848 61.3817 6.85054 61.6161 6.61612C61.8505 6.3817 62.1685 6.25 62.5 6.25C62.8315 6.25 63.1495 6.3817 63.3839 6.61612C63.6183 6.85054 63.75 7.16848 63.75 7.5V59.5988C63.7486 60.7004 63.4566 61.7821 62.9036 62.7348C62.3505 63.6875 61.5559 64.4775 60.6 65.025L54.375 68.585C54.1847 68.6939 53.9692 68.7508 53.75 68.75Z" fill="#363636"/>
<path d="M53.75 62.5C53.4185 62.5 53.1005 62.3683 52.8661 62.1339C52.6317 61.8995 52.5 61.5816 52.5 61.25C52.5013 60.1484 52.7932 59.0666 53.3463 58.1139C53.8993 57.1611 54.694 56.3712 55.65 55.8238L59.36 53.6988C59.9331 53.3706 60.4095 52.8971 60.7413 52.3261C61.0731 51.7551 61.2486 51.1067 61.25 50.4463C61.25 50.1148 61.3817 49.7968 61.6161 49.5624C61.8505 49.328 62.1685 49.1963 62.5 49.1963C62.8315 49.1963 63.1495 49.328 63.3839 49.5624C63.6183 49.7968 63.75 50.1148 63.75 50.4463C63.749 51.5483 63.4573 52.6306 62.9042 53.5838C62.3511 54.537 61.5563 55.3273 60.6 55.875L56.89 58C56.3173 58.3281 55.8411 58.8011 55.5093 59.3717C55.1775 59.9422 55.0019 60.5901 55 61.25C55 61.5816 54.8683 61.8995 54.6339 62.1339C54.3995 62.3683 54.0815 62.5 53.75 62.5Z" fill="#363636"/>
<path d="M53.75 62.5C53.4185 62.5 53.1005 62.3683 52.8661 62.1339C52.6317 61.8995 52.5 61.5816 52.5 61.25C52.4981 60.5901 52.3225 59.9422 51.9907 59.3717C51.6589 58.8011 51.1827 58.3281 50.61 58L46.9 55.875C45.9437 55.3273 45.1489 54.537 44.5958 53.5838C44.0427 52.6306 43.751 51.5483 43.75 50.4463C43.75 50.1148 43.8817 49.7968 44.1161 49.5624C44.3505 49.328 44.6685 49.1963 45 49.1963C45.3315 49.1963 45.6495 49.328 45.8839 49.5624C46.1183 49.7968 46.25 50.1148 46.25 50.4463C46.2508 51.1073 46.4259 51.7565 46.7577 52.3282C47.0896 52.8999 47.5664 53.374 48.14 53.7025L51.85 55.8275C52.8055 56.3746 53.5997 57.164 54.1528 58.116C54.7058 59.068 54.9981 60.149 55 61.25C55 61.5816 54.8683 61.8995 54.6339 62.1339C54.3995 62.3683 54.0815 62.5 53.75 62.5Z" fill="#363636"/>
<path d="M53.75 52.5C53.4185 52.5 53.1005 52.3683 52.8661 52.1339C52.6317 51.8995 52.5 51.5816 52.5 51.25C52.5013 50.1484 52.7932 49.0666 53.3463 48.1139C53.8993 47.1611 54.694 46.3712 55.65 45.8238L59.36 43.6988C59.9331 43.3706 60.4095 42.8971 60.7413 42.3261C61.0731 41.7551 61.2486 41.1067 61.25 40.4463C61.25 40.1148 61.3817 39.7968 61.6161 39.5624C61.8505 39.328 62.1685 39.1963 62.5 39.1963C62.8315 39.1963 63.1495 39.328 63.3839 39.5624C63.6183 39.7968 63.75 40.1148 63.75 40.4463C63.749 41.5483 63.4573 42.6306 62.9042 43.5838C62.3511 44.537 61.5563 45.3273 60.6 45.875L56.89 48C56.3173 48.3281 55.8411 48.8011 55.5093 49.3717C55.1775 49.9422 55.0019 50.5901 55 51.25C55 51.5816 54.8683 51.8995 54.6339 52.1339C54.3995 52.3683 54.0815 52.5 53.75 52.5Z" fill="#363636"/>
<path d="M53.75 52.5C53.4185 52.5 53.1005 52.3683 52.8661 52.1339C52.6317 51.8995 52.5 51.5816 52.5 51.25C52.4981 50.5901 52.3225 49.9422 51.9907 49.3717C51.6589 48.8011 51.1827 48.3281 50.61 48L46.9 45.875C45.9437 45.3273 45.1489 44.537 44.5958 43.5838C44.0427 42.6306 43.751 41.5483 43.75 40.4463C43.75 40.1148 43.8817 39.7968 44.1161 39.5624C44.3505 39.328 44.6685 39.1963 45 39.1963C45.3315 39.1963 45.6495 39.328 45.8839 39.5624C46.1183 39.7968 46.25 40.1148 46.25 40.4463C46.2508 41.1073 46.4259 41.7565 46.7577 42.3282C47.0896 42.8999 47.5664 43.374 48.14 43.7025L51.85 45.8275C52.8055 46.3746 53.5997 47.164 54.1528 48.116C54.7058 49.068 54.9981 50.149 55 51.25C55 51.5816 54.8683 51.8995 54.6339 52.1339C54.3995 52.3683 54.0815 52.5 53.75 52.5Z" fill="#363636"/>
<path d="M53.75 42.5C53.4185 42.5 53.1005 42.3683 52.8661 42.1339C52.6317 41.8995 52.5 41.5816 52.5 41.25C52.5013 40.1484 52.7932 39.0666 53.3463 38.1139C53.8993 37.1611 54.694 36.3712 55.65 35.8238L59.36 33.6988C59.9331 33.3706 60.4095 32.8971 60.7413 32.3261C61.0731 31.7551 61.2486 31.1067 61.25 30.4463C61.25 30.1148 61.3817 29.7968 61.6161 29.5624C61.8505 29.328 62.1685 29.1963 62.5 29.1963C62.8315 29.1963 63.1495 29.328 63.3839 29.5624C63.6183 29.7968 63.75 30.1148 63.75 30.4463C63.749 31.5483 63.4573 32.6306 62.9042 33.5838C62.3511 34.537 61.5563 35.3273 60.6 35.875L56.89 38C56.3173 38.3281 55.8411 38.8011 55.5093 39.3717C55.1775 39.9422 55.0019 40.5901 55 41.25C55 41.5816 54.8683 41.8995 54.6339 42.1339C54.3995 42.3683 54.0815 42.5 53.75 42.5Z" fill="#363636"/>
<path d="M53.75 42.5C53.4185 42.5 53.1005 42.3683 52.8661 42.1339C52.6317 41.8995 52.5 41.5816 52.5 41.25C52.4981 40.5901 52.3225 39.9422 51.9907 39.3717C51.6589 38.8011 51.1827 38.3281 50.61 38L46.9 35.875C45.9437 35.3273 45.1489 34.537 44.5958 33.5838C44.0427 32.6306 43.751 31.5483 43.75 30.4463C43.75 30.1148 43.8817 29.7968 44.1161 29.5624C44.3505 29.328 44.6685 29.1963 45 29.1963C45.3315 29.1963 45.6495 29.328 45.8839 29.5624C46.1183 29.7968 46.25 30.1148 46.25 30.4463C46.2508 31.1073 46.4259 31.7565 46.7577 32.3282C47.0896 32.8999 47.5664 33.374 48.14 33.7025L51.85 35.8275C52.8055 36.3746 53.5997 37.164 54.1528 38.116C54.7058 39.068 54.9981 40.149 55 41.25C55 41.5816 54.8683 41.8995 54.6339 42.1339C54.3995 42.3683 54.0815 42.5 53.75 42.5Z" fill="#363636"/>
<path d="M53.75 32.5C53.4185 32.5 53.1005 32.3683 52.8661 32.1339C52.6317 31.8995 52.5 31.5816 52.5 31.25C52.5013 30.1484 52.7932 29.0666 53.3463 28.1139C53.8993 27.1611 54.694 26.3712 55.65 25.8238L59.36 23.6988C59.9331 23.3706 60.4095 22.8971 60.7413 22.3261C61.0731 21.7551 61.2486 21.1067 61.25 20.4463C61.25 20.1148 61.3817 19.7968 61.6161 19.5624C61.8505 19.328 62.1685 19.1963 62.5 19.1963C62.8315 19.1963 63.1495 19.328 63.3839 19.5624C63.6183 19.7968 63.75 20.1148 63.75 20.4463C63.749 21.5483 63.4573 22.6306 62.9042 23.5838C62.3511 24.537 61.5563 25.3273 60.6 25.875L56.89 28C56.3173 28.3281 55.8411 28.8011 55.5093 29.3717C55.1775 29.9422 55.0019 30.5901 55 31.25C55 31.5816 54.8683 31.8995 54.6339 32.1339C54.3995 32.3683 54.0815 32.5 53.75 32.5Z" fill="#363636"/>
<path d="M53.75 32.5C53.4185 32.5 53.1005 32.3683 52.8661 32.1339C52.6317 31.8995 52.5 31.5816 52.5 31.25C52.4981 30.5901 52.3225 29.9422 51.9907 29.3717C51.6589 28.8011 51.1827 28.3281 50.61 28L46.9 25.875C45.9437 25.3273 45.1489 24.537 44.5958 23.5838C44.0427 22.6306 43.751 21.5483 43.75 20.4463C43.75 20.1148 43.8817 19.7968 44.1161 19.5624C44.3505 19.328 44.6685 19.1963 45 19.1963C45.3315 19.1963 45.6495 19.328 45.8839 19.5624C46.1183 19.7968 46.25 20.1148 46.25 20.4463C46.2508 21.1073 46.4259 21.7565 46.7577 22.3282C47.0896 22.8999 47.5664 23.374 48.14 23.7025L51.85 25.8275C52.8055 26.3746 53.5997 27.164 54.1528 28.116C54.7058 29.068 54.9981 30.149 55 31.25C55 31.5816 54.8683 31.8995 54.6339 32.1339C54.3995 32.3683 54.0815 32.5 53.75 32.5Z" fill="#363636"/>
<path d="M53.75 22.5C53.4185 22.5 53.1005 22.3683 52.8661 22.1339C52.6317 21.8995 52.5 21.5816 52.5 21.25C52.5013 20.1484 52.7932 19.0666 53.3463 18.1139C53.8993 17.1611 54.694 16.3712 55.65 15.8238L59.36 13.6988C59.9331 13.3706 60.4095 12.8971 60.7413 12.3261C61.0731 11.7551 61.2486 11.1067 61.25 10.4463C61.25 10.1148 61.3817 9.79683 61.6161 9.56241C61.8505 9.32799 62.1685 9.19629 62.5 9.19629C62.8315 9.19629 63.1495 9.32799 63.3839 9.56241C63.6183 9.79683 63.75 10.1148 63.75 10.4463C63.749 11.5483 63.4573 12.6306 62.9042 13.5838C62.3511 14.537 61.5563 15.3273 60.6 15.875L56.89 18C56.3173 18.3281 55.8411 18.8011 55.5093 19.3717C55.1775 19.9422 55.0019 20.5901 55 21.25C55 21.5816 54.8683 21.8995 54.6339 22.1339C54.3995 22.3683 54.0815 22.5 53.75 22.5Z" fill="#363636"/>
<path d="M53.75 22.5C53.4185 22.5 53.1005 22.3683 52.8661 22.1339C52.6317 21.8995 52.5 21.5816 52.5 21.25C52.4981 20.5901 52.3225 19.9422 51.9907 19.3717C51.6589 18.8011 51.1827 18.3281 50.61 18L46.9 15.875C45.9437 15.3273 45.1489 14.537 44.5958 13.5838C44.0427 12.6306 43.751 11.5483 43.75 10.4463C43.75 10.1148 43.8817 9.79683 44.1161 9.56241C44.3505 9.32799 44.6685 9.19629 45 9.19629C45.3315 9.19629 45.6495 9.32799 45.8839 9.56241C46.1183 9.79683 46.25 10.1148 46.25 10.4463C46.2508 11.1073 46.4259 11.7565 46.7577 12.3282C47.0896 12.8999 47.5664 13.374 48.14 13.7025L51.85 15.8275C52.8055 16.3746 53.5997 17.164 54.1528 18.116C54.7058 19.068 54.9981 20.149 55 21.25C55 21.5816 54.8683 21.8995 54.6339 22.1339C54.3995 22.3683 54.0815 22.5 53.75 22.5Z" fill="#363636"/>
<path d="M26.25 68.75C25.9185 68.75 25.6005 68.6183 25.3661 68.3839C25.1317 68.1495 25 67.8315 25 67.5V28.75C25 28.4185 25.1317 28.1005 25.3661 27.8661C25.6005 27.6317 25.9185 27.5 26.25 27.5C26.5815 27.5 26.8995 27.6317 27.1339 27.8661C27.3683 28.1005 27.5 28.4185 27.5 28.75V67.5C27.5 67.8315 27.3683 68.1495 27.1339 68.3839C26.8995 68.6183 26.5815 68.75 26.25 68.75Z" fill="#363636"/>
<path d="M26.25 18.75C25.9185 18.75 25.6005 18.6183 25.3661 18.3839C25.1317 18.1495 25 17.8315 25 17.5V13.75C25 13.4185 25.1317 13.1005 25.3661 12.8661C25.6005 12.6317 25.9185 12.5 26.25 12.5C26.5815 12.5 26.8995 12.6317 27.1339 12.8661C27.3683 13.1005 27.5 13.4185 27.5 13.75V17.5C27.5 17.8315 27.3683 18.1495 27.1339 18.3839C26.8995 18.6183 26.5815 18.75 26.25 18.75Z" fill="#363636"/>
<path d="M26.25 68.75C26.0308 68.7508 25.8153 68.6939 25.625 68.585L19.4 65.025C18.4441 64.4775 17.6495 63.6875 17.0964 62.7348C16.5434 61.7821 16.2514 60.7004 16.25 59.5988V17.5C16.25 17.1685 16.3817 16.8505 16.6161 16.6161C16.8505 16.3817 17.1685 16.25 17.5 16.25C17.8315 16.25 18.1495 16.3817 18.3839 16.6161C18.6183 16.8505 18.75 17.1685 18.75 17.5V59.5988C18.7522 60.2587 18.9281 60.9064 19.2598 61.4768C19.5916 62.0473 20.0675 62.5204 20.64 62.8488L26.25 66.06L31.86 62.855C32.4334 62.5262 32.91 62.052 33.2418 61.4804C33.5736 60.9087 33.7489 60.2597 33.75 59.5988V17.5C33.75 17.1685 33.8817 16.8505 34.1161 16.6161C34.3505 16.3817 34.6685 16.25 35 16.25C35.3315 16.25 35.6495 16.3817 35.8839 16.6161C36.1183 16.8505 36.25 17.1685 36.25 17.5V59.5988C36.2486 60.7004 35.9566 61.7821 35.4036 62.7348C34.8505 63.6875 34.0559 64.4775 33.1 65.025L26.875 68.585C26.6847 68.6939 26.4692 68.7508 26.25 68.75Z" fill="#363636"/>
<path d="M26.25 62.5C25.9185 62.5 25.6005 62.3683 25.3661 62.1339C25.1317 61.8995 25 61.5816 25 61.25C25.0013 60.1484 25.2932 59.0666 25.8463 58.1139C26.3993 57.1611 27.194 56.3712 28.15 55.8238L31.86 53.6988C32.4331 53.3706 32.9095 52.8971 33.2413 52.3261C33.5731 51.7551 33.7486 51.1067 33.75 50.4463C33.75 50.1148 33.8817 49.7968 34.1161 49.5624C34.3505 49.328 34.6685 49.1963 35 49.1963C35.3315 49.1963 35.6495 49.328 35.8839 49.5624C36.1183 49.7968 36.25 50.1148 36.25 50.4463C36.249 51.5483 35.9573 52.6306 35.4042 53.5838C34.8511 54.537 34.0563 55.3273 33.1 55.875L29.39 58C28.8173 58.3281 28.3411 58.8011 28.0093 59.3717C27.6775 59.9422 27.5019 60.5901 27.5 61.25C27.5 61.5816 27.3683 61.8995 27.1339 62.1339C26.8995 62.3683 26.5815 62.5 26.25 62.5Z" fill="#363636"/>
<path d="M26.25 62.5C25.9185 62.5 25.6005 62.3683 25.3661 62.1339C25.1317 61.8995 25 61.5816 25 61.25C24.9981 60.5901 24.8225 59.9422 24.4907 59.3717C24.1589 58.8011 23.6827 58.3281 23.11 58L19.4 55.875C18.4437 55.3273 17.6489 54.537 17.0958 53.5838C16.5427 52.6306 16.251 51.5483 16.25 50.4463C16.25 50.1148 16.3817 49.7968 16.6161 49.5624C16.8505 49.328 17.1685 49.1963 17.5 49.1963C17.8315 49.1963 18.1495 49.328 18.3839 49.5624C18.6183 49.7968 18.75 50.1148 18.75 50.4463C18.7508 51.1073 18.9259 51.7565 19.2577 52.3282C19.5896 52.8999 20.0664 53.374 20.64 53.7025L24.35 55.8275C25.3055 56.3746 26.0997 57.164 26.6528 58.116C27.2058 59.068 27.4981 60.149 27.5 61.25C27.5 61.5816 27.3683 61.8995 27.1339 62.1339C26.8995 62.3683 26.5815 62.5 26.25 62.5Z" fill="#363636"/>
<path d="M26.25 52.5C25.9185 52.5 25.6005 52.3683 25.3661 52.1339C25.1317 51.8995 25 51.5816 25 51.25C25.0013 50.1484 25.2932 49.0666 25.8463 48.1139C26.3993 47.1611 27.194 46.3712 28.15 45.8238L31.86 43.6988C32.4331 43.3706 32.9095 42.8971 33.2413 42.3261C33.5731 41.7551 33.7486 41.1067 33.75 40.4463C33.75 40.1148 33.8817 39.7968 34.1161 39.5624C34.3505 39.328 34.6685 39.1963 35 39.1963C35.3315 39.1963 35.6495 39.328 35.8839 39.5624C36.1183 39.7968 36.25 40.1148 36.25 40.4463C36.249 41.5483 35.9573 42.6306 35.4042 43.5838C34.8511 44.537 34.0563 45.3273 33.1 45.875L29.39 48C28.8173 48.3281 28.3411 48.8011 28.0093 49.3717C27.6775 49.9422 27.5019 50.5901 27.5 51.25C27.5 51.5816 27.3683 51.8995 27.1339 52.1339C26.8995 52.3683 26.5815 52.5 26.25 52.5Z" fill="#363636"/>
<path d="M26.25 52.5C25.9185 52.5 25.6005 52.3683 25.3661 52.1339C25.1317 51.8995 25 51.5816 25 51.25C24.9981 50.5901 24.8225 49.9422 24.4907 49.3717C24.1589 48.8011 23.6827 48.3281 23.11 48L19.4 45.875C18.4437 45.3273 17.6489 44.537 17.0958 43.5838C16.5427 42.6306 16.251 41.5483 16.25 40.4463C16.25 40.1148 16.3817 39.7968 16.6161 39.5624C16.8505 39.328 17.1685 39.1963 17.5 39.1963C17.8315 39.1963 18.1495 39.328 18.3839 39.5624C18.6183 39.7968 18.75 40.1148 18.75 40.4463C18.7508 41.1073 18.9259 41.7565 19.2577 42.3282C19.5896 42.8999 20.0664 43.374 20.64 43.7025L24.35 45.8275C25.3055 46.3746 26.0997 47.164 26.6528 48.116C27.2058 49.068 27.4981 50.149 27.5 51.25C27.5 51.5816 27.3683 51.8995 27.1339 52.1339C26.8995 52.3683 26.5815 52.5 26.25 52.5Z" fill="#363636"/>
<path d="M26.25 42.5C25.9185 42.5 25.6005 42.3683 25.3661 42.1339C25.1317 41.8995 25 41.5816 25 41.25C25.0013 40.1484 25.2932 39.0666 25.8463 38.1139C26.3993 37.1611 27.194 36.3712 28.15 35.8238L31.86 33.6988C32.4331 33.3706 32.9095 32.8971 33.2413 32.3261C33.5731 31.7551 33.7486 31.1067 33.75 30.4463C33.75 30.1148 33.8817 29.7968 34.1161 29.5624C34.3505 29.328 34.6685 29.1963 35 29.1963C35.3315 29.1963 35.6495 29.328 35.8839 29.5624C36.1183 29.7968 36.25 30.1148 36.25 30.4463C36.249 31.5483 35.9573 32.6306 35.4042 33.5838C34.8511 34.537 34.0563 35.3273 33.1 35.875L29.39 38C28.8173 38.3281 28.3411 38.8011 28.0093 39.3717C27.6775 39.9422 27.5019 40.5901 27.5 41.25C27.5 41.5816 27.3683 41.8995 27.1339 42.1339C26.8995 42.3683 26.5815 42.5 26.25 42.5Z" fill="#363636"/>
<path d="M26.25 42.5C25.9185 42.5 25.6005 42.3683 25.3661 42.1339C25.1317 41.8995 25 41.5816 25 41.25C24.9981 40.5901 24.8225 39.9422 24.4907 39.3717C24.1589 38.8011 23.6827 38.3281 23.11 38L19.4 35.875C18.4437 35.3273 17.6489 34.537 17.0958 33.5838C16.5427 32.6306 16.251 31.5483 16.25 30.4463C16.25 30.1148 16.3817 29.7968 16.6161 29.5624C16.8505 29.328 17.1685 29.1963 17.5 29.1963C17.8315 29.1963 18.1495 29.328 18.3839 29.5624C18.6183 29.7968 18.75 30.1148 18.75 30.4463C18.7508 31.1073 18.9259 31.7565 19.2577 32.3282C19.5896 32.8999 20.0664 33.374 20.64 33.7025L24.35 35.8275C25.3055 36.3746 26.0997 37.164 26.6528 38.116C27.2058 39.068 27.4981 40.149 27.5 41.25C27.5 41.5816 27.3683 41.8995 27.1339 42.1339C26.8995 42.3683 26.5815 42.5 26.25 42.5Z" fill="#363636"/>
<path d="M26.25 32.5C25.9185 32.5 25.6005 32.3683 25.3661 32.1339C25.1317 31.8995 25 31.5816 25 31.25C25.0013 30.1484 25.2932 29.0666 25.8463 28.1139C26.3993 27.1611 27.194 26.3712 28.15 25.8238L31.86 23.6988C32.4331 23.3706 32.9095 22.8971 33.2413 22.3261C33.5731 21.7551 33.7486 21.1067 33.75 20.4463C33.75 20.1148 33.8817 19.7968 34.1161 19.5624C34.3505 19.328 34.6685 19.1963 35 19.1963C35.3315 19.1963 35.6495 19.328 35.8839 19.5624C36.1183 19.7968 36.25 20.1148 36.25 20.4463C36.249 21.5483 35.9573 22.6306 35.4042 23.5838C34.8511 24.537 34.0563 25.3273 33.1 25.875L29.39 28C28.8173 28.3281 28.3411 28.8011 28.0093 29.3717C27.6775 29.9422 27.5019 30.5901 27.5 31.25C27.5 31.5816 27.3683 31.8995 27.1339 32.1339C26.8995 32.3683 26.5815 32.5 26.25 32.5Z" fill="#363636"/>
<path d="M26.25 32.5C25.9185 32.5 25.6005 32.3683 25.3661 32.1339C25.1317 31.8995 25 31.5816 25 31.25C24.9981 30.5901 24.8225 29.9422 24.4907 29.3717C24.1589 28.8011 23.6827 28.3281 23.11 28L19.4 25.875C18.4437 25.3273 17.6489 24.537 17.0958 23.5838C16.5427 22.6306 16.251 21.5483 16.25 20.4463C16.25 20.1148 16.3817 19.7968 16.6161 19.5624C16.8505 19.328 17.1685 19.1963 17.5 19.1963C17.8315 19.1963 18.1495 19.328 18.3839 19.5624C18.6183 19.7968 18.75 20.1148 18.75 20.4463C18.7508 21.1073 18.9259 21.7565 19.2577 22.3282C19.5896 22.8999 20.0664 23.374 20.64 23.7025L24.35 25.8275C25.3055 26.3746 26.0997 27.164 26.6528 28.116C27.2058 29.068 27.4981 30.149 27.5 31.25C27.5 31.5816 27.3683 31.8995 27.1339 32.1339C26.8995 32.3683 26.5815 32.5 26.25 32.5Z" fill="#363636"/>
<path d="M53.75 7.5C53.4185 7.5 53.1005 7.3683 52.8661 7.13388C52.6317 6.89946 52.5 6.58152 52.5 6.25V3.75C52.5 3.41848 52.6317 3.10054 52.8661 2.86612C53.1005 2.6317 53.4185 2.5 53.75 2.5C54.0815 2.5 54.3995 2.6317 54.6339 2.86612C54.8683 3.10054 55 3.41848 55 3.75V6.25C55 6.58152 54.8683 6.89946 54.6339 7.13388C54.3995 7.3683 54.0815 7.5 53.75 7.5Z" fill="#363636"/>
</svg>
