<svg width="60" height="60" viewBox="0 0 60 60" fill="none" xmlns="http://www.w3.org/2000/svg">
<g clip-path="url(#clip0_210_77)">
<path d="M48.8862 5.89615C50.4739 8.67 49.1747 9.73154 47.88 10.4585C46.5854 11.1831 45.03 11.4392 43.447 8.67231C41.8524 5.89846 41.7924 0 41.7924 0C41.7924 0 47.2939 3.12462 48.8862 5.89615Z" fill="#3D180B"/>
<path d="M55.7538 13.8554C54.3808 16.7423 52.7723 16.2854 51.4385 15.6438C50.0977 14.9908 49.0015 13.86 50.3608 10.9823C51.7338 8.08846 56.5315 4.66846 56.5315 4.66846C56.5315 4.66846 57.1177 10.9708 55.7538 13.8554Z" fill="#3D180B"/>
<path d="M56.6861 24.7568C54.6161 27.1937 53.1761 26.3376 52.0569 25.3729C50.9331 24.4014 50.1646 23.0237 52.2184 20.5937C54.2838 18.1475 59.8131 16.0845 59.8131 16.0845C59.8131 16.0845 58.7492 22.3199 56.6861 24.7568Z" fill="#3D180B"/>
<path d="M47.4577 21.5445C50.2939 23.1968 49.7146 24.7661 48.9577 26.0422C48.1985 27.3207 46.9662 28.313 44.1346 26.6676C41.2916 25.0176 38.1577 19.8691 38.1577 19.8691C38.1577 19.8691 44.6146 19.8968 47.4577 21.5445Z" fill="#3D180B"/>
<path d="M52.9476 35.9606C50.1738 37.5483 49.1122 36.256 48.3807 34.966C47.6538 33.6714 47.3976 32.1114 50.1599 30.5237C52.9315 28.9291 58.8346 28.8599 58.8346 28.8599C58.8346 28.8599 55.7192 34.3683 52.9476 35.9606Z" fill="#3D180B"/>
<path d="M45.7731 30.1315C47.8038 32.7185 46.68 33.96 45.51 34.8669C44.3354 35.7808 42.8123 36.2423 40.7908 33.6646C38.7646 31.0777 37.7631 25.1377 37.7631 25.1377C37.7631 25.1377 43.7446 27.5539 45.7731 30.1315Z" fill="#3D180B"/>
<path d="M47.1416 45.4108C43.9893 45.9647 43.4331 44.3885 43.1816 42.9278C42.9323 41.4601 43.2162 39.9116 46.3477 39.3508C49.5023 38.7901 55.0777 40.7285 55.0777 40.7285C55.0777 40.7285 50.2754 44.8478 47.1416 45.4108Z" fill="#3D180B"/>
<path d="M41.9954 37.5809C43.3823 40.5625 41.9954 41.5132 40.6477 42.1294C39.2931 42.7432 37.7146 42.8471 36.3415 39.8794C34.9546 36.8955 35.3446 30.8794 35.3446 30.8794C35.3446 30.8794 40.62 34.604 41.9954 37.5809Z" fill="#3D180B"/>
<path d="M35.7092 43.3548C36.2746 46.5855 34.6985 47.1509 33.24 47.4002C31.7723 47.6379 30.2123 47.3355 29.6515 44.114C29.0862 40.874 31.0062 35.1602 31.0062 35.1602C31.0062 35.1602 35.1415 40.1194 35.7092 43.3548Z" fill="#3D180B"/>
<path d="M38.7508 52.6779C35.4993 52.1956 35.4647 50.5156 35.6885 49.0549C35.9285 47.5826 36.7039 46.2072 39.9416 46.6918C43.1931 47.1787 48.0093 50.8064 48.0093 50.8064C48.0093 50.8064 41.9931 53.1626 38.7508 52.6779Z" fill="#3D180B"/>
<path d="M28.6108 48.57C28.8461 51.8469 27.2192 52.2485 25.74 52.3477C24.2561 52.4331 22.74 51.9692 22.5023 48.7108C22.2761 45.4292 24.7708 39.9438 24.7708 39.9438C24.7708 39.9438 28.3823 45.3 28.6108 48.57Z" fill="#3D180B"/>
<path d="M29.4507 58.147C26.3492 57.0462 26.633 55.3962 27.1407 54.0024C27.6507 52.6039 28.6823 51.4016 31.7676 52.4931C34.8646 53.5939 38.8938 58.0754 38.8938 58.0754C38.8938 58.0754 32.5384 59.2385 29.4507 58.147Z" fill="#3D180B"/>
<path d="M46.53 12.6093C49.6824 13.4631 49.5254 15.1385 49.1285 16.5601C48.727 17.9931 47.7924 19.2716 44.6539 18.4201C41.49 17.5662 37.17 13.4124 37.17 13.4124C37.17 13.4124 43.38 11.7578 46.53 12.6093Z" fill="#3D180B"/>
<path d="M24.5492 54.0923C24.5492 54.0923 9.65769 59.9492 0.366921 57.8631C-0.362309 58.7307 1.39615 60 1.39615 60C1.39615 60 14.9192 60.21 24.5492 54.0923Z" fill="#3D180B"/>
</g>
<defs>
<clipPath id="clip0_210_77">
<rect width="60" height="60" fill="white"/>
</clipPath>
</defs>
</svg>
