<svg width="74" height="74" viewBox="0 0 74 74" fill="none" xmlns="http://www.w3.org/2000/svg">
<path d="M43.167 52.9167H61.667C63.0935 52.9168 64.2498 54.0732 64.25 55.4997C64.25 56.9263 63.0936 58.0835 61.667 58.0837H43.167C41.7402 58.0837 40.583 56.9265 40.583 55.4997C40.5832 54.073 41.7403 52.9167 43.167 52.9167ZM24.667 34.4167H61.667C63.0935 34.4168 64.2498 35.5732 64.25 36.9997C64.25 38.4263 63.0936 39.5835 61.667 39.5837H24.667C23.2403 39.5837 22.083 38.4265 22.083 36.9997C22.0832 35.573 23.2404 34.4167 24.667 34.4167ZM12.333 15.9167H61.667C63.0935 15.9168 64.2498 17.0732 64.25 18.4997C64.25 19.9263 63.0936 21.0835 61.667 21.0837H12.333C10.9064 21.0835 9.75 19.9263 9.75 18.4997C9.75018 17.0732 10.9065 15.9168 12.333 15.9167Z" fill="black" stroke="black"/>
</svg>
