<svg width="28" height="29" viewBox="0 0 28 29" fill="none" xmlns="http://www.w3.org/2000/svg">
<g clip-path="url(#clip0_208_11)">
<path d="M27.4766 14.4286C27.4766 21.6297 22.4461 27.5996 15.8792 28.6829V18.6274H19.0722L19.6801 14.4671H15.8792V11.7678C15.8792 10.6291 16.4104 9.5205 18.1117 9.5205H19.8393V5.97827C19.8393 5.97827 18.2708 5.69691 16.7722 5.69691C13.6421 5.69691 11.5974 7.68926 11.5974 11.2952V14.4659H8.1182V18.6262H11.5974V28.6817C5.03166 27.5972 0 21.6285 0 14.4286C0 6.46042 6.15133 0 13.7383 0C21.3253 0 27.4766 6.45922 27.4766 14.4286Z" fill="#D98827"/>
</g>
<defs>
<clipPath id="clip0_208_11">
<rect width="27.4766" height="28.6829" fill="white"/>
</clipPath>
</defs>
</svg>
