<svg width="80" height="65" viewBox="0 0 80 65" fill="none" xmlns="http://www.w3.org/2000/svg">
<g clip-path="url(#clip0_210_102)">
<path d="M55.4802 25.6495C59.4117 25.6495 62.5989 23.0818 62.5989 19.9142C62.5989 16.7467 59.4117 14.179 55.4802 14.179C51.5487 14.179 48.3616 16.7467 48.3616 19.9142C48.3616 23.0818 51.5487 25.6495 55.4802 25.6495Z" stroke="#3D180B" stroke-width="5"/>
<path d="M16.4972 35.0518L19.4017 33.0333C22.7203 30.7271 27.9043 30.8566 31.0101 33.3231L40.4976 40.8586C42.4262 42.3902 45.5833 42.5966 47.8377 41.3383C51.0862 39.5249 55.6093 39.7311 58.5399 41.8257L66.6667 47.635" stroke="#3D180B" stroke-width="5" stroke-linecap="round"/>
<path d="M77.8532 30.9069C77.8532 44.425 77.8532 51.1844 72.6406 55.3837C67.4283 59.5834 59.0386 59.5834 42.26 59.5834C25.4811 59.5834 17.0918 59.5834 11.8793 55.3837C6.66675 51.1844 6.66675 44.425 6.66675 30.9069C6.66675 17.3887 6.66675 10.6296 11.8793 6.43005C17.0918 2.23047 25.4811 2.23047 42.26 2.23047C59.0386 2.23047 67.4283 2.23047 72.6406 6.43005C76.1066 9.2224 77.268 13.1463 77.6571 19.4364" stroke="#3D180B" stroke-width="5" stroke-linecap="round"/>
</g>
<defs>
<clipPath id="clip0_210_102">
<rect width="80" height="65" fill="white"/>
</clipPath>
</defs>
</svg>
