<svg width="80" height="80" viewBox="0 0 80 80" fill="none" xmlns="http://www.w3.org/2000/svg">
<g clip-path="url(#clip0_210_27)">
<path d="M36.6481 62.439H74.9814V68.8056C74.9814 70.4942 74.3106 72.1136 73.1167 73.3075C71.9227 74.5015 70.3033 75.1723 68.6147 75.1723H43.3147C42.4538 75.2129 41.5935 75.0783 40.7861 74.7766C39.9787 74.4748 39.241 74.0123 38.6176 73.417C37.9943 72.8217 37.4983 72.1061 37.1597 71.3134C36.8212 70.5207 36.6471 69.6676 36.6481 68.8056V62.439Z" stroke="#D98827" stroke-width="10" stroke-miterlimit="10"/>
<path d="M75 35.2333V62.2666H36.8333L31.1 54.6333C29.917 53.0989 29.004 51.3742 28.4 49.5333C27.6741 47.5456 27.2909 45.4492 27.2666 43.3333C27.2608 42.4984 27.4264 41.6711 27.7532 40.9028C28.08 40.1345 28.5611 39.4415 29.1666 38.8666C29.749 38.2733 30.4443 37.8025 31.2113 37.4819C31.9784 37.1614 32.8019 36.9975 33.6333 36.9999C34.4697 36.9968 35.2984 37.1602 36.071 37.4807C36.8436 37.8012 37.5447 38.2723 38.1333 38.8666C38.7266 39.449 39.1974 40.1442 39.518 40.9113C39.8385 41.6784 40.0024 42.5019 40 43.3333V35.2333C40 30.592 41.8437 26.1408 45.1256 22.8589C48.4075 19.577 52.8587 17.7333 57.5 17.7333C62.1413 17.7333 66.5924 19.577 69.8743 22.8589C73.1562 26.1408 75 30.592 75 35.2333Z" stroke="#D98827" stroke-width="10" stroke-miterlimit="10"/>
<path d="M40 49.5333V43.1666" stroke="#D98827" stroke-width="10" stroke-miterlimit="10"/>
</g>
<defs>
<clipPath id="clip0_210_27">
<rect width="80" height="80" fill="white"/>
</clipPath>
</defs>
</svg>
