<svg width="80" height="65" viewBox="0 0 80 65" fill="none" xmlns="http://www.w3.org/2000/svg">
<path d="M20.5 32.5C20.5 38.4532 24.564 43.6479 30.5545 46.3548C30.5215 46.4722 30.5 46.5933 30.5 46.7188V54.8438C30.5 55.7412 31.3955 56.4688 32.5 56.4688C33.6045 56.4688 34.5 55.7412 34.5 54.8438V47.6979C35.6285 47.968 36.7975 48.161 38 48.2609V58.9063C38 59.8037 38.8955 60.5313 40 60.5313C41.1045 60.5313 42 59.8037 42 58.9063V48.2609C43.202 48.161 44.3715 47.968 45.5 47.6979V54.8438C45.5 55.7412 46.3955 56.4688 47.5 56.4688C48.6045 56.4688 49.5 55.7412 49.5 54.8438V46.7188C49.5 46.5933 49.4785 46.4722 49.4455 46.3548C55.436 43.6479 59.5 38.4532 59.5 32.5C59.5 31.6026 58.6045 30.875 57.5 30.875C56.3985 30.875 55.3205 30.9534 54.2675 31.0964C57.5105 28.2661 59.5 24.4754 59.5 20.3125C59.5 19.4151 58.6045 18.6875 57.5 18.6875C53.117 18.6875 49.0685 19.8689 45.808 21.8599C48.494 16.1899 47.033 9.50995 41.414 4.94492C40.6325 4.31035 39.367 4.31035 38.5855 4.94492C34.9025 7.93776 32.874 11.9166 32.874 16.1485C32.874 18.131 33.3245 20.0562 34.1765 21.8522C30.9195 19.8665 26.8765 18.6875 22.5 18.6875C21.3955 18.6875 20.5 19.4151 20.5 20.3125C20.5 24.4758 22.4895 28.2665 25.7325 31.0969C24.68 30.9534 23.6015 30.875 22.5 30.875C21.3955 30.875 20.5 31.6026 20.5 32.5ZM40 36.1563C40.0035 36.1563 40.0065 36.1563 40.01 36.1563C40.011 36.1563 40.012 36.1563 40.0135 36.1563C41.1105 36.1555 42.1845 36.0779 43.2325 35.9349C41.9405 37.0614 40.8485 38.3407 40.0015 39.7354C39.155 38.3399 38.0615 37.0622 36.7705 35.9349C37.8215 36.0787 38.8995 36.1563 40 36.1563ZM42.1485 44.9731C43.0995 39.4225 48.52 35.0184 55.3515 34.2457C54.4005 39.7963 48.98 44.2005 42.1485 44.9731ZM55.3515 22.0582C54.4005 27.6088 48.98 32.0129 42.1485 32.7856C43.0995 27.235 48.52 22.8309 55.3515 22.0582ZM39.999 8.56135C44.158 13.0329 44.158 19.2628 39.999 23.7348C37.9715 21.5609 36.874 18.9232 36.874 16.1485C36.8745 13.3734 37.9715 10.7352 39.999 8.56135ZM37.8515 32.7856C31.02 32.0129 25.5995 27.6088 24.6485 22.0582C31.48 22.8309 36.9005 27.235 37.8515 32.7856ZM37.8515 44.9731C31.02 44.2005 25.5995 39.7963 24.6485 34.2457C31.48 35.0184 36.9005 39.4225 37.8515 44.9731Z" fill="black"/>
</svg>
