<svg width="28" height="29" viewBox="0 0 28 29" fill="none" xmlns="http://www.w3.org/2000/svg">
<g clip-path="url(#clip0_208_14)">
<path d="M13.7383 2.58385C17.4064 2.58385 17.8415 2.5982 19.2897 2.66751C20.7872 2.73922 22.3293 3.09537 23.4204 4.23432C24.5218 5.38402 24.8526 6.97832 24.9213 8.54632C24.9877 10.0581 25.0014 10.5123 25.0014 14.3415C25.0014 18.1706 24.9877 18.6248 24.9213 20.1366C24.8538 21.6915 24.5046 23.3168 23.4204 24.4486C22.319 25.5983 20.7929 25.9437 19.2897 26.0154C17.8415 26.0847 17.4064 26.0991 13.7383 26.0991C10.0702 26.0991 9.63514 26.0847 8.18689 26.0154C6.70888 25.9449 5.13126 25.572 4.05624 24.4486C2.96061 23.3049 2.62402 21.695 2.55533 20.1366C2.48893 18.6248 2.47519 18.1706 2.47519 14.3415C2.47519 10.5123 2.48893 10.0581 2.55533 8.54632C2.62287 6.99744 2.97549 5.36251 4.05624 4.23432C5.1553 3.087 6.68827 2.73922 8.18689 2.66751C9.63514 2.5982 10.0702 2.58385 13.7383 2.58385ZM13.7383 0C10.0072 0 9.53897 0.0167317 8.07355 0.0860488C5.94984 0.187634 3.841 0.804317 2.30575 2.40698C0.764766 4.01561 0.179743 6.21224 0.0824299 8.428C0.016028 9.95776 0 10.4466 0 14.3415C0 18.2364 0.016028 18.7252 0.0824299 20.2549C0.179743 22.4695 0.77278 24.6769 2.30575 26.2759C3.84558 27.8834 5.95327 28.4953 8.07355 28.5969C9.53897 28.6662 10.0072 28.6829 13.7383 28.6829C17.4694 28.6829 17.9377 28.6662 19.4031 28.5969C21.5257 28.4953 23.6368 27.8774 25.1709 26.2759C26.713 24.6661 27.2969 22.4707 27.3942 20.2549C27.4606 18.7252 27.4766 18.2364 27.4766 14.3415C27.4766 10.4466 27.4606 9.95776 27.3942 8.428C27.2969 6.21105 26.705 4.00844 25.1709 2.40698C23.6333 0.801927 21.5199 0.186439 19.4031 0.0860488C17.9377 0.0167317 17.4694 0 13.7383 0Z" fill="#D98827"/>
<path d="M13.7385 6.97711C9.84251 6.97711 6.68384 10.2745 6.68384 14.3415C6.68384 18.4085 9.84251 21.7058 13.7385 21.7058C17.6344 21.7058 20.7931 18.4085 20.7931 14.3415C20.7931 10.2745 17.6344 6.97711 13.7385 6.97711ZM13.7385 19.1219C11.2095 19.1219 9.15903 16.9815 9.15903 14.3415C9.15903 11.7014 11.2095 9.56097 13.7385 9.56097C16.2675 9.56097 18.3179 11.7014 18.3179 14.3415C18.3179 16.9815 16.2675 19.1219 13.7385 19.1219Z" fill="#D98827"/>
<path d="M21.0724 8.40649C21.9829 8.40649 22.721 7.63598 22.721 6.68551C22.721 5.73505 21.9829 4.96454 21.0724 4.96454C20.1619 4.96454 19.4238 5.73505 19.4238 6.68551C19.4238 7.63598 20.1619 8.40649 21.0724 8.40649Z" fill="#D98827"/>
</g>
<defs>
<clipPath id="clip0_208_14">
<rect width="27.4766" height="28.6829" fill="white"/>
</clipPath>
</defs>
</svg>
