<svg width="251" height="82" viewBox="0 0 251 82" fill="none" xmlns="http://www.w3.org/2000/svg">
<g filter="url(#filter0_d_120_3)">
<g clip-path="url(#clip0_120_3)">
<rect x="4" width="243" height="74" rx="37" fill="#EDC89D" fill-opacity="0.61" shape-rendering="crispEdges"/>
<path d="M42.4102 2C22.8536 2 7 17.8536 7 37.4102C7 56.9668 22.8536 72.8203 42.4102 72.8203C61.9667 72.8203 77.8203 56.9668 77.8203 37.4102C77.8203 17.8536 61.9667 2 42.4102 2Z" fill="#EDC89D" fill-opacity="0.61"/>
<path fill-rule="evenodd" clip-rule="evenodd" d="M49.627 39.1149C47.4595 40.4907 44.8886 41.2878 42.1312 41.2878C39.5269 41.2878 37.0891 40.5763 35 39.3383C33.1906 41.368 30.5563 42.6468 27.6232 42.6468C27.4743 42.6468 27.3266 42.642 27.1794 42.6355L28.6714 47.2959C28.6714 47.2959 31.1481 54.9808 31.9208 57.4269C32.6935 59.8728 36.6827 61.5511 42.4104 61.5511C48.1382 61.5511 52.1604 59.7362 52.9009 57.4269C53.6414 55.1174 56.149 47.2959 56.149 47.2959L57.641 42.6355C57.4937 42.642 57.3462 42.6468 57.1974 42.6468C54.1578 42.6468 51.4394 41.2741 49.627 39.1149ZM33.9351 57.8051C33.2265 57.896 32.0108 54.577 31.2191 50.3914C30.4268 46.2062 30.3587 42.7393 31.0672 42.6488C31.7751 42.5578 32.9908 45.8769 33.7835 50.0626C34.5755 54.2478 34.6432 57.7145 33.9351 57.8051ZM39.7742 59.5518C39.0601 59.6419 38.0498 56.3224 37.5176 52.1372C36.9846 47.9518 37.1316 44.4848 37.845 44.3946C38.5591 44.3036 39.569 47.6233 40.1023 51.8085C40.6344 55.994 40.4874 59.4609 39.7742 59.5518ZM46.7592 52.1372C46.2261 56.3224 45.2161 59.6419 44.5024 59.5518C43.7885 59.4609 43.6413 55.994 44.1746 51.8085C44.7069 47.6233 45.717 44.3036 46.4309 44.3946C47.1446 44.4848 47.2915 47.9518 46.7592 52.1372ZM53.2591 50.3914C52.2326 54.577 50.8318 57.896 50.1284 57.8051C49.4254 57.7145 49.6872 54.2478 50.7132 50.0626C51.7393 45.8769 53.1406 42.5578 53.8439 42.6488C54.5467 42.7393 54.2851 46.2062 53.2591 50.3914Z" fill="#F5DFC2"/>
<path fill-rule="evenodd" clip-rule="evenodd" d="M31.0672 42.6488C30.3589 42.7393 30.4268 46.2062 31.2191 50.3914C32.0109 54.577 33.2264 57.896 33.9351 57.8051C34.6431 57.7145 34.5756 54.2478 33.7837 50.0626C32.9908 45.8769 31.7751 42.5578 31.0672 42.6488Z" fill="#B5A692"/>
<path fill-rule="evenodd" clip-rule="evenodd" d="M53.8436 42.6488C53.1403 42.5578 51.7391 45.8769 50.7129 50.0626C49.6869 54.2478 49.4251 57.7145 50.1281 57.8051C50.8316 57.896 52.2324 54.577 53.2588 50.3914C54.285 46.2062 54.5466 42.7393 53.8436 42.6488Z" fill="#B5A692"/>
<path fill-rule="evenodd" clip-rule="evenodd" d="M46.4308 44.3946C45.7169 44.3036 44.7066 47.6233 44.1745 51.8085C43.641 55.994 43.7884 59.4609 44.5023 59.5518C45.216 59.642 46.226 56.3224 46.7591 52.1372C47.2914 47.9518 47.1444 44.4848 46.4308 44.3946Z" fill="#B5A692"/>
<path fill-rule="evenodd" clip-rule="evenodd" d="M37.8447 44.3946C37.1313 44.4848 36.9843 47.9518 37.5173 52.1372C38.0495 56.3224 39.0598 59.642 39.7739 59.5518C40.4872 59.4609 40.6343 55.994 40.102 51.8085C39.5687 47.6233 38.5588 44.3036 37.8447 44.3946Z" fill="#B5A692"/>
<path d="M57.1972 22.8869C56.9774 22.8869 56.7594 22.894 56.5433 22.9082C55.9876 22.9549 55.3689 22.6026 55.0899 21.9482C52.9926 16.8552 47.9809 13.2694 42.1311 13.2694C36.0563 13.2694 30.8854 17.1365 28.9438 22.5428C28.8945 22.68 28.8384 22.9459 28.3457 22.9134C28.1071 22.8959 27.8662 22.8869 27.6231 22.8869C22.1664 22.8869 17.7429 27.3103 17.7429 32.7669C17.7429 38.0747 21.9288 42.4034 27.1794 42.6355C27.3266 42.642 27.4744 42.6468 27.6231 42.6468C30.3495 42.6468 32.7937 41.5173 34.6054 39.756C34.9764 39.3953 35.4081 39.5734 35.6171 39.6833C37.5632 40.7075 39.7793 41.2878 42.1311 41.2878C44.5838 41.2878 46.9283 40.7256 48.894 39.5495C49.4386 39.2237 49.9656 39.5027 50.1457 39.6862C51.9386 41.5133 54.4354 42.6468 57.1973 42.6468C57.3461 42.6468 57.4938 42.642 57.6409 42.6355C62.8914 42.4034 67.0772 38.0747 67.0772 32.7669C67.0771 27.3105 62.6537 22.8869 57.1972 22.8869Z" fill="#745643"/>
<path d="M78.5682 50L82.4318 26.7273H87.3523L84.1705 45.9432H94.1477L93.4659 50H78.5682ZM104.543 50.3409C102.755 50.3409 101.274 49.9773 100.099 49.25C98.9252 48.5152 98.0994 47.4773 97.6222 46.1364C97.1525 44.7879 97.0729 43.1932 97.3835 41.3523C97.6866 39.5568 98.2964 37.9811 99.2131 36.625C100.137 35.2689 101.296 34.2121 102.69 33.4545C104.084 32.697 105.637 32.3182 107.349 32.3182C108.501 32.3182 109.543 32.5038 110.474 32.875C111.414 33.2386 112.194 33.7917 112.815 34.5341C113.437 35.2689 113.861 36.1894 114.088 37.2955C114.323 38.4015 114.319 39.697 114.077 41.1818L113.861 42.5114H99.1335L99.5994 39.5114H109.781C109.895 38.8144 109.849 38.197 109.645 37.6591C109.44 37.1212 109.099 36.7008 108.622 36.3977C108.145 36.0871 107.558 35.9318 106.861 35.9318C106.149 35.9318 105.482 36.1061 104.861 36.4545C104.24 36.803 103.717 37.2614 103.293 37.8295C102.876 38.3902 102.607 39 102.486 39.6591L101.952 42.6364C101.8 43.553 101.83 44.3144 102.043 44.9205C102.262 45.5265 102.641 45.9811 103.179 46.2841C103.717 46.5795 104.399 46.7273 105.224 46.7273C105.762 46.7273 106.266 46.6515 106.736 46.5C107.213 46.3485 107.637 46.125 108.009 45.8295C108.38 45.5265 108.683 45.1515 108.918 44.7045L113.338 45C112.929 46.0758 112.308 47.0152 111.474 47.8182C110.641 48.6136 109.637 49.2348 108.463 49.6818C107.296 50.1212 105.99 50.3409 104.543 50.3409ZM123.699 50.3409C121.919 50.3409 120.445 49.9621 119.278 49.2045C118.112 48.4394 117.29 47.3788 116.812 46.0227C116.343 44.6591 116.256 43.072 116.551 41.2614C116.839 39.4735 117.438 37.9091 118.347 36.5682C119.256 35.2273 120.411 34.1856 121.812 33.4432C123.214 32.6932 124.794 32.3182 126.551 32.3182C128.324 32.3182 129.794 32.7008 130.96 33.4659C132.127 34.2235 132.949 35.2841 133.426 36.6477C133.903 38.0114 133.994 39.5985 133.699 41.4091C133.403 43.1894 132.797 44.75 131.881 46.0909C130.964 47.4318 129.809 48.4773 128.415 49.2273C127.021 49.9697 125.449 50.3409 123.699 50.3409ZM124.176 46.5909C124.994 46.5909 125.718 46.3598 126.347 45.8977C126.983 45.428 127.509 44.7917 127.926 43.9886C128.35 43.178 128.646 42.2614 128.812 41.2386C128.979 40.2311 128.991 39.3371 128.847 38.5568C128.703 37.7689 128.4 37.1477 127.938 36.6932C127.483 36.2386 126.858 36.0114 126.062 36.0114C125.244 36.0114 124.517 36.2462 123.881 36.7159C123.244 37.178 122.718 37.8144 122.301 38.625C121.884 39.4356 121.593 40.3561 121.426 41.3864C121.267 42.3864 121.256 43.2803 121.392 44.0682C121.528 44.8485 121.828 45.4659 122.29 45.9205C122.752 46.3674 123.381 46.5909 124.176 46.5909ZM143.256 50.3409C141.46 50.3409 139.983 49.9621 138.824 49.2045C137.672 48.4394 136.866 47.3788 136.403 46.0227C135.949 44.6667 135.869 43.1061 136.165 41.3409C136.453 39.553 137.055 37.9848 137.972 36.6364C138.888 35.2803 140.051 34.2235 141.46 33.4659C142.877 32.7008 144.468 32.3182 146.233 32.3182C147.756 32.3182 149.044 32.5947 150.097 33.1477C151.15 33.7008 151.922 34.4773 152.415 35.4773C152.907 36.4773 153.074 37.6515 152.915 39H148.358C148.366 38.1364 148.142 37.4356 147.688 36.8977C147.233 36.3598 146.566 36.0909 145.688 36.0909C144.93 36.0909 144.233 36.2955 143.597 36.7045C142.968 37.1061 142.434 37.6932 141.994 38.4659C141.563 39.2386 141.259 40.1742 141.085 41.2727C140.903 42.3864 140.9 43.3333 141.074 44.1136C141.248 44.8939 141.581 45.4886 142.074 45.8977C142.566 46.3068 143.188 46.5114 143.938 46.5114C144.498 46.5114 145.017 46.3977 145.494 46.1705C145.979 45.9432 146.403 45.6136 146.767 45.1818C147.131 44.7424 147.411 44.2159 147.608 43.6023H152.176C151.866 44.9432 151.301 46.1174 150.483 47.125C149.672 48.1326 148.653 48.9205 147.426 49.4886C146.199 50.0568 144.809 50.3409 143.256 50.3409ZM159.128 50.3295C158.022 50.3295 157.063 50.1364 156.253 49.75C155.45 49.3561 154.859 48.7727 154.48 48C154.101 47.2273 154.007 46.2689 154.196 45.125C154.363 44.1553 154.677 43.3447 155.139 42.6932C155.609 42.0341 156.181 41.5038 156.855 41.1023C157.529 40.7008 158.276 40.3939 159.094 40.1818C159.92 39.9697 160.772 39.8258 161.651 39.75C162.666 39.6439 163.491 39.5417 164.128 39.4432C164.772 39.3447 165.253 39.2045 165.571 39.0227C165.889 38.8333 166.082 38.553 166.151 38.1818V38.1136C166.264 37.4015 166.132 36.8485 165.753 36.4545C165.382 36.053 164.787 35.8523 163.969 35.8523C163.105 35.8523 162.37 36.0417 161.764 36.4205C161.166 36.7992 160.738 37.2803 160.48 37.8636L156.071 37.5C156.465 36.4394 157.06 35.5227 157.855 34.75C158.658 33.9697 159.624 33.3712 160.753 32.9545C161.882 32.5303 163.147 32.3182 164.548 32.3182C165.518 32.3182 166.423 32.4318 167.264 32.6591C168.113 32.8864 168.844 33.2386 169.457 33.7159C170.079 34.1932 170.526 34.8068 170.798 35.5568C171.079 36.2992 171.135 37.1894 170.969 38.2273L169.003 50H164.412L164.821 47.5795H164.685C164.313 48.125 163.859 48.6061 163.321 49.0227C162.783 49.4318 162.166 49.7538 161.469 49.9886C160.772 50.2159 159.991 50.3295 159.128 50.3295ZM161.071 46.9886C161.776 46.9886 162.423 46.8485 163.014 46.5682C163.613 46.2803 164.105 45.8939 164.491 45.4091C164.885 44.9242 165.135 44.375 165.241 43.7614L165.537 41.9091C165.385 42.0076 165.166 42.0947 164.878 42.1705C164.598 42.2462 164.291 42.3182 163.957 42.3864C163.632 42.447 163.302 42.5038 162.969 42.5568C162.635 42.6023 162.336 42.6477 162.071 42.6932C161.488 42.7765 160.965 42.9091 160.503 43.0909C160.041 43.2727 159.666 43.5189 159.378 43.8295C159.09 44.1326 158.912 44.5114 158.844 44.9659C158.738 45.625 158.893 46.1288 159.31 46.4773C159.734 46.8182 160.321 46.9886 161.071 46.9886ZM177.974 44.9773L178.94 39.1705H179.645L186.361 32.5455H191.918L182.963 41.3182H181.804L177.974 44.9773ZM172.759 50L176.622 26.7273H181.463L177.599 50H172.759ZM183.668 50L179.804 42.3977L183.588 38.9773L189.338 50H183.668ZM198.574 50.3409C196.786 50.3409 195.305 49.9773 194.131 49.25C192.956 48.5152 192.131 47.4773 191.653 46.1364C191.184 44.7879 191.104 43.1932 191.415 41.3523C191.718 39.5568 192.328 37.9811 193.244 36.625C194.169 35.2689 195.328 34.2121 196.722 33.4545C198.116 32.697 199.669 32.3182 201.381 32.3182C202.532 32.3182 203.574 32.5038 204.506 32.875C205.445 33.2386 206.225 33.7917 206.847 34.5341C207.468 35.2689 207.892 36.1894 208.119 37.2955C208.354 38.4015 208.35 39.697 208.108 41.1818L207.892 42.5114H193.165L193.631 39.5114H203.812C203.926 38.8144 203.881 38.197 203.676 37.6591C203.472 37.1212 203.131 36.7008 202.653 36.3977C202.176 36.0871 201.589 35.9318 200.892 35.9318C200.18 35.9318 199.513 36.1061 198.892 36.4545C198.271 36.803 197.748 37.2614 197.324 37.8295C196.907 38.3902 196.638 39 196.517 39.6591L195.983 42.6364C195.831 43.553 195.862 44.3144 196.074 44.9205C196.294 45.5265 196.672 45.9811 197.21 46.2841C197.748 46.5795 198.43 46.7273 199.256 46.7273C199.794 46.7273 200.297 46.6515 200.767 46.5C201.244 46.3485 201.669 46.125 202.04 45.8295C202.411 45.5265 202.714 45.1515 202.949 44.7045L207.369 45C206.96 46.0758 206.339 47.0152 205.506 47.8182C204.672 48.6136 203.669 49.2348 202.494 49.6818C201.328 50.1212 200.021 50.3409 198.574 50.3409ZM226.401 37.5227L222.003 37.7955C221.98 37.4091 221.874 37.0644 221.685 36.7614C221.503 36.4508 221.234 36.2045 220.878 36.0227C220.529 35.8409 220.09 35.75 219.56 35.75C218.764 35.75 218.056 35.9318 217.435 36.2955C216.813 36.6591 216.461 37.125 216.378 37.6932C216.31 38.0568 216.404 38.3636 216.662 38.6136C216.92 38.8636 217.438 39.0758 218.219 39.25L221.287 39.8864C222.923 40.2348 224.105 40.8144 224.832 41.625C225.567 42.4356 225.829 43.4962 225.616 44.8068C225.427 45.9205 224.938 46.8939 224.151 47.7273C223.363 48.553 222.363 49.197 221.151 49.6591C219.938 50.1136 218.594 50.3409 217.116 50.3409C214.745 50.3409 212.942 49.8561 211.707 48.8864C210.473 47.9167 209.878 46.6023 209.923 44.9432L214.651 44.6932C214.688 45.4053 214.938 45.9432 215.401 46.3068C215.863 46.6629 216.495 46.8447 217.298 46.8523C218.2 46.8674 218.965 46.6818 219.594 46.2955C220.23 45.9015 220.59 45.4242 220.673 44.8636C220.734 44.4697 220.62 44.1515 220.332 43.9091C220.052 43.6667 219.537 43.4659 218.787 43.3068L215.878 42.7045C214.226 42.3636 213.041 41.7538 212.321 40.875C211.601 39.9962 211.355 38.8788 211.582 37.5227C211.764 36.4394 212.215 35.5114 212.935 34.7386C213.662 33.9583 214.598 33.3598 215.741 32.9432C216.893 32.5265 218.192 32.3182 219.639 32.3182C221.904 32.3182 223.609 32.7841 224.753 33.7159C225.904 34.6477 226.454 35.9167 226.401 37.5227Z" fill="#3D180B"/>
</g>
</g>
<defs>
<filter id="filter0_d_120_3" x="0" y="0" width="251" height="82" filterUnits="userSpaceOnUse" color-interpolation-filters="sRGB">
<feFlood flood-opacity="0" result="BackgroundImageFix"/>
<feColorMatrix in="SourceAlpha" type="matrix" values="0 0 0 0 0 0 0 0 0 0 0 0 0 0 0 0 0 0 127 0" result="hardAlpha"/>
<feOffset dy="4"/>
<feGaussianBlur stdDeviation="2"/>
<feComposite in2="hardAlpha" operator="out"/>
<feColorMatrix type="matrix" values="0 0 0 0 0 0 0 0 0 0 0 0 0 0 0 0 0 0 0.25 0"/>
<feBlend mode="normal" in2="BackgroundImageFix" result="effect1_dropShadow_120_3"/>
<feBlend mode="normal" in="SourceGraphic" in2="effect1_dropShadow_120_3" result="shape"/>
</filter>
<clipPath id="clip0_120_3">
<rect x="4" width="243" height="74" rx="37" fill="white"/>
</clipPath>
</defs>
</svg>
