<svg width="28" height="29" viewBox="0 0 28 29" fill="none" xmlns="http://www.w3.org/2000/svg">
<g clip-path="url(#clip0_208_19)">
<path fill-rule="evenodd" clip-rule="evenodd" d="M13.7383 0C6.15133 0 0 6.42139 0 14.3415C0 22.2615 6.15133 28.6829 13.7383 28.6829C21.3253 28.6829 27.4766 22.2615 27.4766 14.3415C27.4766 6.42139 21.3253 0 13.7383 0ZM20.106 9.75339C19.9 12.0205 19.0047 17.5241 18.5502 20.0637C18.3578 21.1393 17.9777 21.499 17.6114 21.5337C16.8134 21.6102 16.2078 20.9828 15.435 20.4545C14.226 19.6275 13.5425 19.1124 12.3691 18.3045C11.0124 17.3711 11.8917 16.8584 12.6644 16.0206C12.8671 15.8007 16.3818 12.4627 16.4505 12.1604C16.4585 12.1221 16.4677 11.9811 16.3864 11.907C16.3051 11.8329 16.1872 11.858 16.1025 11.8783C15.9811 11.907 14.0497 13.2396 10.3072 15.876C9.75879 16.2692 9.26192 16.4604 8.81657 16.4509C8.32657 16.4401 7.3832 16.1616 6.6814 15.9226C5.82161 15.631 5.13699 15.4756 5.19652 14.9809C5.22743 14.7227 5.56745 14.4586 6.21773 14.1885C10.2225 12.3671 12.8934 11.166 14.2295 10.5852C18.0453 8.92876 18.8375 8.64073 19.355 8.63117C20.003 8.62161 20.1587 9.17973 20.106 9.75339Z" fill="#D98827"/>
</g>
<defs>
<clipPath id="clip0_208_19">
<rect width="27.4766" height="28.6829" fill="white"/>
</clipPath>
</defs>
</svg>
