<svg width="28" height="29" viewBox="0 0 28 29" fill="none" xmlns="http://www.w3.org/2000/svg">
<g clip-path="url(#clip0_208_22)">
<path d="M25.7192 11.7911C23.2704 11.7911 21.0001 10.9736 19.1477 9.58488V19.606C19.1477 24.6111 15.2472 28.6817 10.4536 28.6817C8.60126 28.6817 6.88283 28.0722 5.47122 27.0372C3.22958 25.394 1.75958 22.6762 1.75958 19.606C1.75958 14.6008 5.66012 10.529 10.4548 10.529C10.8532 10.529 11.2425 10.5637 11.626 10.6175V11.7851V15.6513C11.2551 15.5306 10.8635 15.4601 10.4548 15.4601C8.26582 15.4601 6.48442 17.3197 6.48442 19.606C6.48442 21.1979 7.34993 22.5806 8.61386 23.275C9.16454 23.5774 9.79078 23.7507 10.4559 23.7507C12.5945 23.7507 14.3393 21.9747 14.4194 19.7613L14.4229 0H19.1466C19.1466 0.427854 19.1866 0.844951 19.2576 1.25129C19.5908 3.13002 20.6589 4.74224 22.1392 5.74973C23.1696 6.45127 24.3992 6.8612 25.7181 6.8612L25.7192 11.7911Z" fill="#D98827"/>
</g>
<defs>
<clipPath id="clip0_208_22">
<rect width="27.4766" height="28.6829" fill="white"/>
</clipPath>
</defs>
</svg>
